<svg width="40" height="36" viewBox="0 0 40 36" fill="none" xmlns="http://www.w3.org/2000/svg">
<path d="M1 1L1.82298 0.431927C1.57434 0.0717244 1.12036 -0.0849332 0.702492 0.0452807C0.284629 0.175494 0 0.562318 0 1L1 1ZM19.9429 28.4429L19.1199 29.0109C19.3066 29.2814 19.6142 29.4429 19.9429 29.4429C20.2715 29.4429 20.5791 29.2814 20.7658 29.0109L19.9429 28.4429ZM38.8857 1H39.8857C39.8857 0.562318 39.6011 0.175494 39.1832 0.0452807C38.7654 -0.0849332 38.3114 0.0717244 38.0627 0.431927L38.8857 1ZM37.8857 35C37.8857 35.5523 38.3334 36 38.8857 36C39.438 36 39.8857 35.5523 39.8857 35H37.8857ZM2 35V1H0V35H2ZM0.177022 1.56807L19.1199 29.0109L20.7658 27.8748L1.82298 0.431927L0.177022 1.56807ZM20.7658 29.0109L39.7087 1.56807L38.0627 0.431927L19.1199 27.8748L20.7658 29.0109ZM37.8857 1V35H39.8857V1H37.8857Z" fill="black"/>
<path d="M7.3143 30.1066L19.7794 7.3143L32.5714 30.6286" stroke="black" stroke-linejoin="round"/>
</svg>
